<svg xmlns="http://www.w3.org/2000/svg" viewBox="0 0 512 512">
  <path fill="#fbc02d" d="M400 160H128c-17.67 0-32 14.33-32 32v256c0 17.67 14.33 32 32 32h272c17.67 0 32-14.33 32-32V192c0-17.67-14.33-32-32-32z"/>
  <path fill="#f57f17" d="M400 192v256H128V192h272m0-32H128c-17.67 0-32 14.33-32 32v256c0 17.67 14.33 32 32 32h272c17.67 0 32-14.33 32-32V192c0-17.67-14.33-32-32-32z"/>
  <path fill="#fff" d="M128 160c0-35.35 28.65-64 64-64h128c35.35 0 64 28.65 64 64v32H128v-32z"/>
  <path fill="#e0e0e0" d="M384 192v-32c0-35.35-28.65-64-64-64H192c-35.35 0-64 28.65-64 64v32h256m32 0H96v-32c0-53.02 42.98-96 96-96h128c53.02 0 96 42.98 96 96v32z"/>
  <path fill="#424242" d="M432 224h32v160h-32z"/>
</svg>
